<?xml version="1.0" standalone="no"?><!DOCTYPE svg PUBLIC "-//W3C//DTD SVG 1.1//EN" "http://www.w3.org/Graphics/SVG/1.1/DTD/svg11.dtd"><svg t="1586836825019" class="icon" viewBox="0 0 1024 1024" version="1.1" xmlns="http://www.w3.org/2000/svg" p-id="3639" xmlns:xlink="http://www.w3.org/1999/xlink" width="200" height="200"><defs><style type="text/css"></style></defs><path d="M851.968 392.192H768c0 137.728-102.912 250.88-236.032 267.776v106.496h38.4c8.192 0 18.432 6.656 23.552 15.872l69.632 121.856c17.92 31.744 21.504 64.512 3.072 64.512H329.216c-18.432 0-14.848-33.28 3.584-64.512l70.144-121.856c5.12-9.216 15.36-15.872 23.552-15.872h37.888v-106.496c-133.12-16.384-236.032-130.048-236.032-267.776H144.384c-37.376 0-67.584-30.208-67.584-67.584V257.536c0-37.376 30.208-67.584 67.584-67.584h84.48V122.368c0-37.376 30.208-67.584 67.584-67.584h404.48c37.376 0 67.584 30.208 67.584 67.584v67.584h84.48c37.376 0 67.584 30.208 67.584 67.584v67.584c-1.024 36.864-31.232 67.072-68.608 67.072zM228.352 257.536h-48.64c-18.432 0-33.792 14.848-33.792 33.792 0 18.432 14.848 33.792 33.792 33.792h48.64V257.536z m325.632-16.896L498.176 139.264 442.368 240.64l-113.664 22.016 79.36 84.48-14.336 114.688 104.96-49.152 104.96 49.152-14.848-114.688 79.36-84.48-114.176-22.016z m262.144 16.896H768v67.584h48.64c18.432 0 33.792-14.848 33.792-33.792-0.512-18.944-15.36-33.792-34.304-33.792z m0 0" p-id="3640"></path></svg>