<?xml version="1.0" standalone="no"?><!DOCTYPE svg PUBLIC "-//W3C//DTD SVG 1.1//EN" "http://www.w3.org/Graphics/SVG/1.1/DTD/svg11.dtd"><svg t="1586836727158" class="icon" viewBox="0 0 1024 1024" version="1.1" xmlns="http://www.w3.org/2000/svg" p-id="3154" xmlns:xlink="http://www.w3.org/1999/xlink" width="200" height="200"><defs><style type="text/css"></style></defs><path d="M700.66 191.308c-7.608 0-13.753-2.561-18.944-7.68-5.052-5.125-9.367-11.046-12.733-17.851-3.437-6.805-6-13.753-7.68-20.926-1.76-7.167-2.635-13.094-2.635-17.852V1.454h2.048c6.146 0 11.923 0.659 17.41 2.048 5.415 1.389 12.075 4.61 19.9 9.729 7.76 5.124 17.343 12.219 28.535 21.44 11.27 9.144 25.465 21.216 42.433 36.143 18.365 16.39 32.928 30.143 43.83 41.333 10.9 11.197 19.313 20.856 25.017 28.607 5.856 7.754 9.366 14.412 10.684 19.9 1.463 5.414 2.049 10.17 2.049 14.268v16.315H700.66v0.071z m317.379 480.678c1.976 5.413 3.366 12.291 4.097 20.412 0.66 8.122-2.707 16.026-10.242 23.561-3.366 3.293-6.436 6.586-9.217 9.584-2.634 3.148-5.051 5.56-7.172 7.68-2.635 2.707-5.047 4.684-7.167 6.145l-86.77-85.742c4.17-3.437 8.702-7.613 13.753-12.291 5.119-4.682 9.366-8.417 12.805-11.27 8.044-7.462 16.969-10.683 26.48-9.583 9.584 1.027 17.344 3.148 23.49 6.586 6.803 3.438 14.043 9.289 21.947 17.85 7.905 8.486 13.899 17.484 17.996 27.068z m-360.254 94.82c14.927 0 27.513-4.02 37.684-12.141l-197.978 206.17H215.813c-12.95 0-26.999-3.878-42.36-11.27-15.223-7.464-29.562-17.41-42.801-29.557-13.241-12.29-24.293-26.412-33.218-42.287-8.774-16.024-13.24-32.559-13.24-49.605V133.073c0-14.34 3.22-29.264 9.73-44.922 6.44-15.584 15.22-29.7 26.413-42.288 11.191-12.582 23.997-23.121 38.262-31.677 14.27-8.49 29.267-12.732 44.924-12.732h390.909v127.668c0 12.805 1.976 26.85 6.073 41.774 4.17 14.999 10.462 28.752 18.873 41.34 8.562 12.581 19.61 23.12 33.29 31.604 13.536 8.562 29.852 12.806 48.874 12.806h149.03v337.72L710.832 739.367c7.463-10.973 11.118-22.895 11.118-35.7 0-17.707-6.29-32.849-18.872-45.436-12.587-12.583-27.658-18.872-45.29-18.872H275.003c-17.705 0-32.633 6.29-44.923 18.872-12.292 12.587-18.364 27.73-18.364 45.437 0 17.705 6.073 32.558 18.364 44.85s27.217 18.286 44.923 18.286h382.781zM275.004 384.167c-17.705 0-32.633 6.291-44.923 18.872-12.22 12.66-18.364 27.73-18.364 45.437 0 17.632 6.073 32.63 18.364 44.924 12.219 12.216 27.217 18.291 44.923 18.291h382.781c17.633 0 32.777-6.075 45.365-18.291 12.58-12.22 18.878-27.29 18.878-44.924 0-17.707-6.297-32.85-18.878-45.437-12.588-12.58-27.731-18.872-45.365-18.872H275.004z m384.83 511.404l13.174-13.314 25.53-25.607c10.244-10.172 21.513-21.586 33.732-34.168a3539.198 3539.198 0 0 1 36.796-37.314c29.193-29.265 62.265-61.891 98.994-98.034l85.744 85.743-135.792 135.79-33.726 33.73c-9.51 9.584-17.414 17.556-23.924 24.584-6.44 6.73-10.024 10.46-10.682 11.118-3.439 2.707-7.167 5.56-11.192 8.708-4.169 2.999-8.12 5.56-12.292 7.61-4.097 2.12-10.392 4.61-18.877 7.68-8.635 3.075-17.337 6.074-26.117 8.634-8.853 2.853-17.343 5.269-25.538 7.168-8.121 2.12-14.267 3.59-18.364 4.17-8.116 1.316-13.609 0.295-16.388-2.998-2.707-3.44-3.366-9.294-2.049-17.41 0.66-4.025 2.049-10.17 4.097-18.292 2.049-8.267 4.465-16.612 7.173-25.024 2.707-8.557 5.269-16.607 7.61-23.996 2.49-7.61 4.391-12.587 5.63-15.44 4.17-8.782 9.585-16.606 16.461-23.338z m0 0" p-id="3155"></path></svg>